<svg xmlns="http://www.w3.org/2000/svg" viewBox="0 0 346 105" fill="none">
  <g clipPath="url(#clip0_1035_1019)">
    <path
      d="M111.619 31.7188L104.789 38.5588V63.5888L111.619 70.4287H124.519L131.609 63.5987V58.4488H122.619L122.609 59.8888L121.119 61.4187H115.349L113.789 59.8588V42.2888L115.349 40.7188H121.039L122.609 42.2888L122.649 43.6988H131.609V38.5588L124.769 31.7188H111.619Z"
      fill="#0059B1"
    />
    <path
      d="M140.43 70.4287H167.25V61.4187H149.43V55.5688H158.34V46.5688H149.43V40.7288H167.25V31.7188H140.43V70.4287Z"
      fill="#0059B1"
    />
    <path
      d="M185.078 40.7187H192.338L193.898 42.2888V45.0487L192.408 46.5888H185.078V40.7187ZM202.898 48.7187V38.5487L196.078 31.7188H176.078V70.4188H185.078V55.5688H187.618L193.978 70.4188H203.718L197.058 54.4187L202.898 48.7187Z"
      fill="#0059B1"
    />
    <path
      d="M211.711 70.4287H238.531V61.4187H220.711V55.5688H229.621V46.5688H220.711V40.7288H238.531V31.7188H211.711V70.4287Z"
      fill="#0059B1"
    />
    <path
      d="M256.352 61.4187V55.5688H263.612L265.172 57.1388V59.8487L263.612 61.4187H256.352ZM256.352 46.5688V40.7187H263.612L265.172 42.2888V45.0487L263.612 46.6187L256.352 46.5688ZM247.352 31.7188V70.4188H267.352L274.182 63.5888V53.4088L271.852 51.0487L274.182 48.7187V38.5487L267.352 31.7188H247.352Z"
      fill="#0059B1"
    />
    <path
      d="M291.98 40.7187H299.24L300.8 42.2888V45.0487L299.32 46.5888H291.98V40.7187ZM309.81 48.7187V38.5487L302.98 31.7188H282.98V70.4188H291.98V55.5688H294.52L300.83 70.4188H310.57L303.91 54.4187L309.81 48.7187Z"
      fill="#0059B1"
    />
    <path
      d="M335.82 31.7188L332.04 39.7987L328.26 31.7188H318.32L327.54 51.4187V70.4287H336.54V51.4187L345.76 31.7188H335.82Z"
      fill="#0059B1"
    />
    <path
      d="M80.9794 91.1506C80.6076 91.1526 80.2435 91.0443 79.9333 90.8394C79.623 90.6344 79.3805 90.3421 79.2364 89.9993C79.0923 89.6566 79.053 89.2788 79.1236 88.9137C79.1942 88.5486 79.3715 88.2127 79.633 87.9484C79.8945 87.6841 80.2286 87.5033 80.5928 87.4288C80.9571 87.3543 81.3353 87.3895 81.6796 87.53C82.0239 87.6704 82.3188 87.9098 82.527 88.2179C82.7352 88.5259 82.8474 88.8888 82.8494 89.2606V89.2606C82.8494 89.7585 82.653 90.2362 82.3029 90.5901C81.9528 90.9439 81.4772 91.1454 80.9794 91.1506V91.1506ZM66.8994 82.1506V82.0506C66.9017 81.6299 66.8376 81.2114 66.7094 80.8106V80.8106L74.1794 74.9506C74.4643 75.019 74.7564 75.0525 75.0494 75.0506H75.2794L79.0794 85.7906C78.4905 86.1119 77.9919 86.5762 77.6294 87.1406L66.8994 82.1506ZM69.0994 92.4706H68.7894C67.7285 92.4706 66.7111 92.8921 65.961 93.6422C65.2108 94.3924 64.7894 95.4098 64.7894 96.4706C64.7794 96.6271 64.7794 96.7841 64.7894 96.9406L58.6294 100.141C58.4415 99.7996 58.1863 99.5003 57.8794 99.2606L62.0794 85.9306C62.3741 86.0037 62.6759 86.0439 62.9794 86.0506C63.6496 86.0485 64.3085 85.8779 64.8956 85.5546C65.4827 85.2314 65.9792 84.7658 66.3394 84.2006L68.2494 85.1006L69.0994 92.4706ZM68.7894 98.3106C68.4176 98.3106 68.0541 98.2004 67.7449 97.9938C67.4358 97.7872 67.1948 97.4936 67.0525 97.1501C66.9102 96.8066 66.873 96.4286 66.9455 96.0639C67.0181 95.6992 67.1971 95.3642 67.46 95.1013C67.723 94.8384 68.0579 94.6593 68.4226 94.5868C68.7873 94.5142 69.1653 94.5515 69.5088 94.6937C69.8524 94.836 70.146 95.077 70.3526 95.3862C70.5591 95.6953 70.6694 96.0588 70.6694 96.4306V96.4306C70.6694 96.9292 70.4713 97.4074 70.1188 97.76C69.7662 98.1126 69.288 98.3106 68.7894 98.3106V98.3106ZM56.1294 102.311C55.9712 102.311 55.8165 102.264 55.6849 102.176C55.5534 102.088 55.4508 101.963 55.3903 101.817C55.3297 101.671 55.3139 101.51 55.3448 101.355C55.3756 101.199 55.4518 101.057 55.5637 100.945C55.6756 100.833 55.8181 100.757 55.9733 100.726C56.1285 100.695 56.2894 100.711 56.4355 100.772C56.5817 100.832 56.7067 100.935 56.7946 101.066C56.8825 101.198 56.9294 101.352 56.9294 101.511V101.511C56.9294 101.72 56.8462 101.921 56.698 102.069C56.5499 102.217 56.3489 102.301 56.1394 102.301V102.301L56.1294 102.311ZM42.4894 95.7706L47.0794 87.8606C47.3237 87.9042 47.5712 87.9276 47.8194 87.9306C48.1293 87.9292 48.4379 87.8923 48.7394 87.8206L53.7394 99.8206C53.5798 100.045 53.4519 100.291 53.3594 100.551L43.4794 98.9306C43.4894 98.8342 43.4894 98.737 43.4794 98.6406C43.5116 98.1198 43.4397 97.5978 43.2681 97.1051C43.0964 96.6123 42.8283 96.1587 42.4794 95.7706H42.4894ZM41.3994 98.5306C41.376 98.8965 41.2462 99.2474 41.0259 99.5404C40.8056 99.8334 40.5045 100.056 40.1596 100.18C39.8147 100.304 39.441 100.324 39.0846 100.239C38.7281 100.153 38.4045 99.9654 38.1534 99.6983C37.9024 99.4312 37.7348 99.0965 37.6715 98.7355C37.6082 98.3745 37.6518 98.0028 37.7969 97.6662C37.9421 97.3296 38.1824 97.0428 38.4885 96.841C38.7945 96.6393 39.1528 96.5314 39.5194 96.5306H39.6194C39.8682 96.5434 40.112 96.6054 40.3366 96.7132C40.5612 96.8209 40.7621 96.9722 40.9277 97.1583C41.0934 97.3444 41.2203 97.5616 41.3013 97.7971C41.3823 98.0327 41.4156 98.2821 41.3994 98.5306V98.5306ZM44.6094 86.2606C44.7859 86.507 44.9907 86.7318 45.2194 86.9306L40.6994 94.6306C40.3746 94.5304 40.0388 94.47 39.6994 94.4506C39.3635 94.4351 39.0271 94.4653 38.6994 94.5406L36.7994 89.4506L44.6094 86.2606ZM28.8294 90.5006C28.3987 89.6477 27.6769 88.9772 26.7946 88.6103C25.9123 88.2435 24.9279 88.2046 24.0194 88.5006L17.4194 80.6706C17.9277 80.1335 18.2772 79.466 18.4291 78.7422C18.5809 78.0185 18.5291 77.2668 18.2794 76.5706L24.7994 72.3406C25.4046 72.7698 26.1186 73.0194 26.8594 73.0606H27.0794C27.5719 73.0601 28.0601 72.9685 28.5194 72.7906L34.1794 88.2906L28.8294 90.5006ZM27.1494 92.3806C27.1367 92.6294 27.0746 92.8732 26.9669 93.0978C26.8591 93.3224 26.7078 93.5234 26.5217 93.689C26.3356 93.8546 26.1185 93.9816 25.8829 94.0626C25.6473 94.1435 25.398 94.1769 25.1494 94.1606V94.1606C24.9006 94.1479 24.6568 94.0859 24.4322 93.9781C24.2076 93.8704 24.0067 93.7191 23.841 93.533C23.6754 93.3469 23.5484 93.1297 23.4675 92.8941C23.3865 92.6586 23.3532 92.4092 23.3694 92.1606C23.3975 91.6813 23.6079 91.231 23.9575 90.9018C24.307 90.5727 24.7693 90.3898 25.2494 90.3906H25.3494C25.5973 90.4046 25.84 90.4676 26.0635 90.5759C26.2869 90.6843 26.4867 90.8358 26.6513 91.0217C26.8158 91.2077 26.9419 91.4244 27.0223 91.6593C27.1026 91.8943 27.1356 92.1429 27.1194 92.3906V92.3906L27.1494 92.3806ZM14.4394 79.8106C13.965 79.7656 13.5254 79.5422 13.2095 79.1854C12.8936 78.8287 12.7249 78.3653 12.7376 77.8889C12.7503 77.4126 12.9434 76.9588 13.2779 76.6194C13.6124 76.28 14.0633 76.0803 14.5394 76.0606H14.6394C14.8882 76.0734 15.132 76.1354 15.3566 76.2432C15.5812 76.3509 15.7821 76.5022 15.9477 76.6883C16.1134 76.8744 16.2403 77.0916 16.3213 77.3271C16.4023 77.5627 16.4356 77.8121 16.4194 78.0606C16.4054 78.3086 16.3424 78.5513 16.2341 78.7747C16.1258 78.9982 15.9743 79.1979 15.7883 79.3625C15.6024 79.5271 15.3857 79.6532 15.1507 79.7335C14.9157 79.8139 14.6672 79.8469 14.4194 79.8306V79.8306L14.4394 79.8106ZM19.8494 56.1406C20.3046 56.3424 20.7923 56.4609 21.2894 56.4906H21.4994C21.7715 56.4938 22.0431 56.4669 22.3094 56.4106L25.3094 65.5506H25.2394L17.4994 60.2306L19.8494 56.1406ZM10.2594 68.6506C10.0245 68.5873 9.78263 68.5538 9.53939 68.5506L5.53939 56.5506C5.92955 56.4016 6.29397 56.1924 6.61939 55.9306C6.73939 55.8206 6.84939 55.7006 6.95939 55.5806L14.7094 60.9306L10.2594 68.6506ZM9.49939 72.2406C9.34117 72.2406 9.1865 72.1937 9.05494 72.1058C8.92338 72.0179 8.82084 71.893 8.76029 71.7468C8.69974 71.6006 8.6839 71.4398 8.71477 71.2846C8.74563 71.1294 8.82183 70.9868 8.93371 70.875C9.04559 70.7631 9.18814 70.6869 9.34332 70.656C9.49851 70.6251 9.65936 70.641 9.80554 70.7015C9.95172 70.7621 10.0767 70.8646 10.1646 70.9962C10.2525 71.1277 10.2994 71.2824 10.2994 71.4406C10.2994 71.6528 10.2151 71.8563 10.0651 72.0063C9.91505 72.1564 9.71157 72.2406 9.49939 72.2406V72.2406ZM2.56939 54.2406C2.39582 54.0556 2.26263 53.8364 2.17827 53.5972C2.09392 53.3579 2.06025 53.1036 2.07939 52.8506C2.1085 52.353 2.331 51.8865 2.69939 51.5506C3.04659 51.2267 3.50454 51.0478 3.97939 51.0506H4.07939C4.57703 51.0798 5.04357 51.3023 5.37939 51.6706C5.54567 51.8578 5.67289 52.0763 5.7536 52.3132C5.83431 52.5502 5.86688 52.8009 5.84939 53.0506C5.84035 53.2968 5.78062 53.5383 5.67394 53.7603C5.56726 53.9823 5.41592 54.1798 5.22939 54.3406C5.04855 54.5078 4.83566 54.6366 4.60362 54.7191C4.37157 54.8016 4.12519 54.8361 3.87939 54.8206C3.63419 54.8071 3.39407 54.7453 3.17273 54.6389C2.95139 54.5326 2.75317 54.3836 2.58939 54.2006L2.56939 54.2406ZM4.75939 35.8406C4.78003 35.3587 4.98612 34.9034 5.3346 34.5698C5.68308 34.2362 6.14699 34.0502 6.62939 34.0506H6.72939C6.97698 34.0595 7.2201 34.1191 7.44372 34.2258C7.66733 34.3324 7.86667 34.4838 8.02939 34.6706C8.27332 34.9478 8.43024 35.2906 8.48059 35.6564C8.53094 36.0221 8.47248 36.3946 8.31251 36.7273C8.15254 37.0601 7.89813 37.3384 7.58104 37.5274C7.26394 37.7165 6.89818 37.8081 6.52939 37.7906C6.28181 37.7818 6.03868 37.7222 5.81507 37.6155C5.59145 37.5089 5.39212 37.3575 5.22939 37.1706C4.90013 36.8006 4.7311 36.3151 4.75939 35.8206V35.8406ZM14.0794 26.6206H14.2994C15.2751 26.6217 16.2176 26.266 16.9494 25.6206C17.1061 25.4773 17.2531 25.3236 17.3894 25.1606L24.3894 27.3806L24.8394 30.9206C24.4517 31.0887 24.0938 31.3183 23.7794 31.6006C23.1089 32.2091 22.6647 33.027 22.5194 33.9206H10.0794C9.93994 33.6952 9.78278 33.4812 9.60939 33.2806L9.53939 33.2106L13.3594 26.5206C13.5983 26.5824 13.8429 26.6192 14.0894 26.6306L14.0794 26.6206ZM12.4294 22.5606C12.4525 22.0805 12.6597 21.6276 13.0079 21.2962C13.3562 20.9647 13.8186 20.7801 14.2994 20.7806H14.3994C14.8976 20.8076 15.3649 21.0305 15.6994 21.4006C16.0291 21.7749 16.2011 22.2623 16.1794 22.7606C16.1297 23.2405 15.8975 23.6829 15.5308 23.9963C15.1641 24.3097 14.691 24.4701 14.2093 24.4444C13.7276 24.4187 13.2742 24.2089 12.9429 23.8582C12.6116 23.5076 12.4277 23.043 12.4294 22.5606V22.5606ZM23.4294 10.5606C23.5331 10.5593 23.6361 10.5785 23.7325 10.6169C23.8288 10.6554 23.9167 10.7125 23.991 10.7849C24.0652 10.8574 24.1245 10.9437 24.1654 11.0391C24.2064 11.1344 24.2281 11.2369 24.2294 11.3406V11.3406C24.2294 11.5528 24.1451 11.7563 23.9951 11.9063C23.845 12.0564 23.6416 12.1406 23.4294 12.1406C23.2172 12.1406 23.0137 12.0564 22.8637 11.9063C22.7137 11.7563 22.6294 11.5528 22.6294 11.3406C22.6294 11.1311 22.7126 10.9302 22.8608 10.782C23.0089 10.6339 23.2099 10.5506 23.4194 10.5506V10.5506L23.4294 10.5606ZM17.2794 20.1006L22.4994 14.1006H22.5694L24.0194 25.1006L18.1794 23.2406C18.1896 23.1242 18.1896 23.0071 18.1794 22.8906C18.2406 21.8786 17.9073 20.8822 17.2494 20.1106L17.2794 20.1006ZM31.8494 18.7306C31.8273 19.1002 31.6966 19.4549 31.4737 19.7505C31.2509 20.046 30.9457 20.2692 30.5965 20.392C30.2472 20.5148 29.8695 20.5318 29.5107 20.4409C29.1519 20.3499 28.8279 20.155 28.5794 19.8806C28.4122 19.6998 28.2835 19.4869 28.201 19.2549C28.1185 19.0228 28.0839 18.7764 28.0994 18.5306C28.1071 18.2837 28.1635 18.0407 28.2652 17.8156C28.3669 17.5905 28.512 17.3876 28.6922 17.2186C28.8724 17.0495 29.0841 16.9177 29.3152 16.8305C29.5464 16.7434 29.7925 16.7026 30.0394 16.7106H30.1694C30.4182 16.7234 30.662 16.7854 30.8866 16.8932C31.1112 17.0009 31.3121 17.1522 31.4777 17.3383C31.6434 17.5244 31.7703 17.7416 31.8513 17.9771C31.9323 18.2127 31.9656 18.4621 31.9494 18.7106L31.8494 18.7306ZM33.5094 8.57065L30.7894 14.6906C30.6274 14.6608 30.4638 14.6408 30.2994 14.6306C29.2414 14.5706 28.2028 14.9327 27.4116 15.6377C26.6204 16.3427 26.1413 17.3328 26.0794 18.3906C26.0472 18.9115 26.119 19.4335 26.2907 19.9262C26.4624 20.419 26.7305 20.8726 27.0794 21.2606C27.7857 22.0466 28.7744 22.5212 29.8294 22.5806H30.0794C30.6047 22.5806 31.1248 22.4772 31.6101 22.2762C32.0954 22.0751 32.5364 21.7805 32.9078 21.4091C33.2793 21.0376 33.5739 20.5967 33.7749 20.1114C33.9759 19.6261 34.0794 19.1059 34.0794 18.5806C34.0678 17.6163 33.7133 16.6875 33.0794 15.9606C32.9694 15.8341 32.849 15.717 32.7194 15.6106L35.5494 9.24065H35.7494C36.2848 9.25258 36.8166 9.15031 37.3094 8.94065L41.6994 16.7006C41.3592 17.1806 41.1291 17.7296 41.0253 18.3087C40.9216 18.8877 40.9469 19.4825 41.0994 20.0506L33.1894 26.2206C32.8702 26.0996 32.5306 26.0419 32.1894 26.0506C31.7709 26.0492 31.3569 26.1378 30.9756 26.3103C30.5943 26.4828 30.2546 26.7353 29.9794 27.0506L26.1794 25.8506L24.7094 13.9306C25.1955 13.6999 25.6075 13.3379 25.899 12.8856C26.1905 12.4334 26.35 11.9087 26.3594 11.3706L32.5194 7.66065C32.8004 8.01138 33.1384 8.31226 33.5194 8.55065L33.5094 8.57065ZM35.7194 3.36065C36.0912 3.36065 36.4547 3.47091 36.7639 3.67748C37.073 3.88406 37.314 4.17768 37.4563 4.5212C37.5986 4.86473 37.6358 5.24273 37.5633 5.60742C37.4907 5.9721 37.3117 6.30708 37.0488 6.57001C36.7858 6.83293 36.4508 7.01198 36.0862 7.08452C35.7215 7.15706 35.3435 7.11983 34.9999 6.97754C34.6564 6.83525 34.3628 6.59428 34.1562 6.28512C33.9497 5.97595 33.8394 5.61248 33.8394 5.24065C33.8394 4.74204 34.0375 4.26385 34.39 3.91129C34.7426 3.55872 35.2208 3.36065 35.7194 3.36065V3.36065ZM45.4794 4.55065C45.7952 5.17755 46.3284 5.66808 46.9794 5.93065L44.8794 14.9306C44.3572 14.9414 43.8416 15.0499 43.3594 15.2506L38.9794 7.45065C39.4279 6.78963 39.6682 6.00946 39.6694 5.21065L45.4794 4.55065ZM47.9794 2.43065C48.1376 2.43065 48.2923 2.47757 48.4239 2.56547C48.5554 2.65338 48.6579 2.77832 48.7185 2.9245C48.779 3.07068 48.7949 3.23153 48.764 3.38672C48.7332 3.5419 48.657 3.68445 48.5451 3.79633C48.4332 3.90821 48.2906 3.98441 48.1355 4.01527C47.9803 4.04614 47.8194 4.0303 47.6732 3.96975C47.5271 3.9092 47.4021 3.80666 47.3142 3.6751C47.2263 3.54354 47.1794 3.38887 47.1794 3.23065V3.23065C47.1794 3.01847 47.2637 2.81499 47.4137 2.66496C47.5637 2.51493 47.7672 2.43065 47.9794 2.43065ZM62.2594 5.12065L68.9094 6.12065C68.8994 6.31051 68.8994 6.50078 68.9094 6.69065C68.9126 7.42935 69.1202 8.15275 69.5094 8.78065L64.1794 17.4306C63.763 17.2023 63.3092 17.0499 62.8394 16.9806L60.7194 7.28065C61.4682 6.7615 62.0127 5.99774 62.2594 5.12065ZM56.5594 4.05065C56.5633 3.67969 56.6769 3.3182 56.8859 3.01168C57.0949 2.70516 57.3898 2.46731 57.7337 2.32808C58.0776 2.18885 58.4549 2.15446 58.8183 2.22924C59.1816 2.30402 59.5147 2.48464 59.7757 2.74834C60.0366 3.01204 60.2137 3.34704 60.2846 3.71117C60.3555 4.0753 60.3172 4.45227 60.1743 4.79463C60.0314 5.137 59.7905 5.42944 59.4818 5.63515C59.173 5.84085 58.8104 5.95063 58.4394 5.95065C58.1908 5.95066 57.9447 5.90138 57.7153 5.80565C57.4859 5.70992 57.2777 5.56965 57.1029 5.39295C56.9281 5.21626 56.79 5.00664 56.6967 4.77623C56.6034 4.54583 56.5568 4.29921 56.5594 4.05065V4.05065ZM72.8494 4.87065C73.2225 4.86868 73.5877 4.97778 73.8986 5.18404C74.2095 5.39031 74.452 5.68442 74.5953 6.02893C74.7385 6.37345 74.776 6.75279 74.7029 7.11867C74.6299 7.48455 74.4496 7.82043 74.1851 8.08354C73.9206 8.34665 73.5837 8.52511 73.2174 8.59619C72.8512 8.66727 72.472 8.62776 72.1283 8.48269C71.7846 8.33762 71.4918 8.09355 71.2872 7.78155C71.0826 7.46955 70.9754 7.10373 70.9794 6.73065C70.9794 6.23377 71.1761 5.75709 71.5265 5.40481C71.8769 5.05253 72.3525 4.85329 72.8494 4.85065V4.87065ZM79.5294 15.2306L75.1294 25.7906L75.2494 9.93065C75.3794 9.83065 75.4994 9.72065 75.6194 9.61065L79.2494 13.2906V13.7406C79.2494 14.262 79.3513 14.7784 79.5494 15.2606L79.5294 15.2306ZM83.2194 11.8606C83.5912 11.8587 83.9553 11.967 84.2655 12.1719C84.5758 12.3769 84.8183 12.6692 84.9624 13.012C85.1065 13.3547 85.1458 13.7325 85.0752 14.0976C85.0046 14.4626 84.8273 14.7986 84.5658 15.0629C84.3043 15.3272 83.9702 15.508 83.6059 15.5825C83.2417 15.657 82.8635 15.6218 82.5192 15.4813C82.1749 15.3409 81.88 15.1015 81.6718 14.7934C81.4636 14.4854 81.3514 14.1225 81.3494 13.7506V13.7506C81.352 13.2546 81.5495 12.7794 81.8994 12.4277C82.2492 12.076 82.7233 11.8759 83.2194 11.8706V11.8606ZM83.3394 22.0506C82.4846 22.2713 81.7268 22.7687 81.1841 23.465C80.6415 24.1614 80.3445 25.0178 80.3394 25.9006C80.3293 26.0838 80.3293 26.2675 80.3394 26.4506L76.1494 28.7006L81.0794 17.0506C81.7203 17.4647 82.4664 17.6867 83.2294 17.6906H83.5094L83.3394 22.0506ZM86.2294 25.9006C86.2353 26.2737 86.1302 26.6401 85.9272 26.9532C85.7243 27.2663 85.4328 27.5119 85.0899 27.6588C84.7469 27.8057 84.368 27.8472 84.0014 27.7781C83.6347 27.709 83.2969 27.5323 83.031 27.2707C82.7651 27.009 82.583 26.6741 82.508 26.3086C82.433 25.9431 82.4684 25.5636 82.6098 25.2183C82.7512 24.873 82.9921 24.5776 83.3019 24.3697C83.6117 24.1618 83.9763 24.0507 84.3494 24.0506V24.0506C84.848 24.0506 85.3262 24.2487 85.6788 24.6013C86.0313 24.9539 86.2294 25.432 86.2294 25.9306V25.9006ZM73.4894 32.1306C73.3312 32.1306 73.1765 32.0837 73.0449 31.9958C72.9134 31.9079 72.8108 31.783 72.7503 31.6368C72.6897 31.4906 72.6739 31.3298 72.7048 31.1746C72.7356 31.0194 72.8118 30.8768 72.9237 30.765C73.0356 30.6531 73.1781 30.5769 73.3333 30.546C73.4885 30.5151 73.6494 30.531 73.7955 30.5915C73.9417 30.6521 74.0667 30.7546 74.1546 30.8862C74.2425 31.0177 74.2894 31.1724 74.2894 31.3306C74.2907 31.4344 74.2716 31.5374 74.2331 31.6337C74.1946 31.7301 74.1375 31.8179 74.0651 31.8922C73.9927 31.9665 73.9063 32.0258 73.811 32.0667C73.7156 32.1076 73.6131 32.1293 73.5094 32.1306V32.1306H73.4894ZM71.0794 10.2706C71.6412 10.5525 72.2609 10.6997 72.8894 10.7006H73.1794L73.0494 28.4206C72.7817 28.4595 72.5218 28.5405 72.2794 28.6606L65.4094 23.4106C65.9035 22.7807 66.1971 22.0169 66.2524 21.2183C66.3077 20.4196 66.122 19.6227 65.7194 18.9306L71.0794 10.2706ZM60.3894 20.9306C60.3894 20.5588 60.4997 20.1953 60.7062 19.8862C60.9128 19.577 61.2064 19.336 61.5499 19.1938C61.8935 19.0515 62.2715 19.0142 62.6362 19.0868C63.0008 19.1593 63.3358 19.3384 63.5988 19.6013C63.8617 19.8642 64.0407 20.1992 64.1133 20.5639C64.1858 20.9286 64.1486 21.3066 64.0063 21.6501C63.864 21.9936 63.623 22.2872 63.3139 22.4938C63.0047 22.7004 62.6412 22.8106 62.2694 22.8106C62.0225 22.8106 61.778 22.762 61.5499 22.6675C61.3219 22.5731 61.1146 22.4346 60.94 22.26C60.7655 22.0854 60.627 21.8782 60.5325 21.6501C60.438 21.422 60.3894 21.1775 60.3894 20.9306V20.9306ZM48.9094 18.8206C48.8847 18.1431 48.6882 17.483 48.3384 16.9022C47.9885 16.3215 47.4968 15.8392 46.9094 15.5006L49.1494 5.93065L49.4294 5.79065L59.2694 18.3306L59.0694 18.5806L48.9094 18.8206ZM44.9094 20.8206C44.5389 20.8167 44.1778 20.7033 43.8715 20.4948C43.5652 20.2863 43.3273 19.9919 43.1878 19.6486C43.0483 19.3054 43.0133 18.9285 43.0873 18.5654C43.1612 18.2023 43.3409 17.8692 43.6036 17.6079C43.8663 17.3466 44.2003 17.1687 44.5638 17.0966C44.9273 17.0246 45.304 17.0615 45.6465 17.2029C45.989 17.3442 46.2821 17.5836 46.4891 17.891C46.696 18.1984 46.8074 18.5601 46.8094 18.9306C46.8107 19.1801 46.7624 19.4273 46.6673 19.6578C46.5722 19.8884 46.4321 20.0977 46.2553 20.2736C46.0784 20.4495 45.8684 20.5885 45.6373 20.6824C45.4062 20.7763 45.1588 20.8233 44.9094 20.8206ZM32.2094 29.6806C31.9972 29.6806 31.7937 29.5964 31.6437 29.4463C31.4937 29.2963 31.4094 29.0928 31.4094 28.8806C31.4173 28.6632 31.5114 28.4578 31.6708 28.3096C31.8302 28.1615 32.0419 28.0827 32.2594 28.0906C32.4769 28.0986 32.6823 28.1926 32.8304 28.352C32.9786 28.5114 33.0573 28.7232 33.0494 28.9406C33.0494 29.1528 32.9651 29.3563 32.8151 29.5063C32.665 29.6564 32.4616 29.7406 32.2494 29.7406L32.2094 29.6806ZM27.8494 33.3906C28.0286 33.5716 28.169 33.7872 28.2619 34.0243C28.3549 34.2614 28.3984 34.515 28.3898 34.7696C28.3813 35.0241 28.3208 35.2742 28.2121 35.5045C28.1035 35.7348 27.9489 35.9405 27.7579 36.109C27.567 36.2775 27.3436 36.4052 27.1015 36.4843C26.8594 36.5633 26.6037 36.5921 26.3501 36.5689C26.0965 36.5456 25.8503 36.4708 25.6267 36.349C25.403 36.2272 25.2065 36.061 25.0494 35.8606C24.8877 35.6826 24.7629 35.4743 24.6823 35.2477C24.6016 35.0211 24.5666 34.7808 24.5794 34.5406C24.6002 34.0535 24.8105 33.5937 25.1654 33.2593C25.5203 32.9249 25.9918 32.7424 26.4794 32.7506H26.5794C26.827 32.7595 27.0701 32.8191 27.2937 32.9258C27.5173 33.0324 27.7167 33.1838 27.8794 33.3706L27.8494 33.3906ZM13.4094 44.6006C13.5676 44.6006 13.7223 44.6476 13.8539 44.7355C13.9854 44.8234 14.0879 44.9483 14.1485 45.0945C14.209 45.2407 14.2249 45.4015 14.194 45.5567C14.1632 45.7119 14.087 45.8544 13.9751 45.9663C13.8632 46.0782 13.7207 46.1544 13.5655 46.1853C13.4103 46.2161 13.2494 46.2003 13.1032 46.1398C12.9571 46.0792 12.8321 45.9767 12.7442 45.8451C12.6563 45.7135 12.6094 45.5589 12.6094 45.4006V45.4006C12.6094 45.1885 12.6937 44.985 12.8437 44.835C12.9937 44.6849 13.1972 44.6006 13.4094 44.6006V44.6006ZM22.7294 36.0506C23.0626 36.8942 23.6727 37.5994 24.4594 38.0506L21.1994 48.5306C20.411 48.6006 19.6602 48.8996 19.0394 49.3906L16.0394 46.6706C16.2279 46.2737 16.3269 45.8401 16.3294 45.4006C16.3294 44.6315 16.0239 43.8939 15.48 43.35C14.9361 42.8062 14.1985 42.5006 13.4294 42.5006V42.5006C13.1862 42.5038 12.9443 42.5374 12.7094 42.6006L9.77939 38.3606C10.2685 37.7231 10.5543 36.953 10.5994 36.1506V36.0506H22.7294ZM6.91939 50.2906C6.46764 49.7899 5.89661 49.4115 5.25939 49.1906L6.71939 39.9306C7.18751 39.9167 7.64884 39.8149 8.07939 39.6306L10.9794 43.8306C10.6436 44.3441 10.4798 44.951 10.5119 45.5637C10.544 46.1763 10.7701 46.7628 11.1577 47.2384C11.5453 47.7139 12.0741 48.0538 12.6677 48.2088C13.2613 48.3639 13.8888 48.326 14.4594 48.1006L17.7994 51.1006C17.5772 51.6985 17.5012 52.3408 17.5778 52.974C17.6543 53.6072 17.8812 54.2129 18.2394 54.7406L15.7394 59.0506L7.87939 53.6406V53.1606C7.91159 52.6398 7.83975 52.1178 7.66806 51.6251C7.49636 51.1323 7.22826 50.6787 6.87939 50.2906H6.91939ZM23.3594 52.6006C23.3097 53.0805 23.0775 53.5229 22.7108 53.8363C22.3441 54.1497 21.871 54.3101 21.3893 54.2844C20.9076 54.2587 20.4542 54.0489 20.1229 53.6982C19.7916 53.3476 19.6077 52.883 19.6094 52.4006C19.6385 51.903 19.861 51.4365 20.2294 51.1006C20.572 50.791 21.0176 50.6199 21.4794 50.6206H21.5794C22.08 50.6516 22.5481 50.8792 22.8815 51.2539C23.215 51.6285 23.3867 52.1198 23.3594 52.6206V52.6006ZM28.4294 67.8606C28.5966 68.0415 28.7253 68.2544 28.8078 68.4864C28.8903 68.7185 28.9249 68.9649 28.9094 69.2106C28.8841 69.5739 28.7533 69.9218 28.533 70.2118C28.3128 70.5017 28.0127 70.7211 27.6695 70.8429C27.3264 70.9647 26.9551 70.9837 26.6014 70.8975C26.2476 70.8113 25.9267 70.6238 25.678 70.3578C25.4293 70.0918 25.2637 69.759 25.2014 69.4003C25.1392 69.0415 25.1831 68.6724 25.3276 68.3382C25.4722 68.004 25.7112 67.7193 26.0153 67.519C26.3193 67.3187 26.6753 67.2115 27.0394 67.2106H27.1394C27.3846 67.2242 27.6247 67.286 27.8461 67.3923C28.0674 67.4987 28.2656 67.6477 28.4294 67.8306V67.8606ZM43.8994 84.2906L36.1294 87.4906L30.8594 73.1006L43.9794 83.3306C43.9479 83.5358 43.9311 83.743 43.9294 83.9506V84.2906H43.8994ZM47.9294 82.0706C48.2988 82.0844 48.6559 82.2068 48.9561 82.4224C49.2563 82.6381 49.4863 82.9375 49.6173 83.2831C49.7483 83.6288 49.7745 84.0054 49.6926 84.3658C49.6107 84.7263 49.4244 85.0546 49.1569 85.3097C48.8894 85.5649 48.5527 85.7355 48.1888 85.8002C47.8248 85.865 47.4499 85.8211 47.1108 85.6739C46.7717 85.5267 46.4836 85.2829 46.2823 84.9728C46.0811 84.6628 45.9757 84.3003 45.9794 83.9306C45.9794 83.6821 46.0287 83.436 46.1244 83.2066C46.2201 82.9771 46.3604 82.769 46.5371 82.5942C46.7138 82.4193 46.9234 82.2813 47.1538 82.188C47.3842 82.0947 47.6308 82.048 47.8794 82.0506L47.9294 82.0706ZM51.7594 84.8106L59.1694 83.3206C59.3793 83.9101 59.7214 84.4438 60.1694 84.8806L55.9094 98.5806H55.5394L50.6394 86.7406C51.1916 86.1928 51.5766 85.4991 51.7494 84.7406L51.7594 84.8106ZM62.8994 80.0506C62.6888 79.7603 62.3728 79.5641 62.0192 79.5042C61.6655 79.4443 61.3025 79.5255 61.0081 79.7303C60.7136 79.9351 60.5113 80.2472 60.4444 80.5996C60.3775 80.952 60.4515 81.3165 60.6505 81.6149C60.8494 81.9134 61.1575 82.1219 61.5084 82.1957C61.8594 82.2695 62.2254 82.2027 62.5277 82.0097C62.83 81.8167 63.0445 81.5128 63.1252 81.1633C63.2059 80.8139 63.1464 80.4467 62.9594 80.1406L62.8994 80.0506ZM75.0794 69.1406C75.4499 69.1407 75.8122 69.2502 76.1207 69.4555C76.4292 69.6608 76.6701 69.9527 76.8132 70.2944C76.9564 70.6362 76.9953 71.0127 76.9252 71.3765C76.855 71.7404 76.6789 72.0754 76.419 72.3394C76.1591 72.6035 75.8269 72.7849 75.4642 72.8608C75.1015 72.9367 74.7245 72.9037 74.3805 72.766C74.0365 72.6283 73.7408 72.392 73.5307 72.0868C73.3206 71.7816 73.2053 71.4211 73.1994 71.0506V71.0506C73.1994 70.5547 73.3964 70.079 73.7471 69.7284C74.0978 69.3777 74.5734 69.1806 75.0694 69.1806L75.0794 69.1406ZM83.3594 65.0506C83.4631 65.0493 83.5661 65.0684 83.6625 65.1069C83.7588 65.1454 83.8467 65.2025 83.921 65.2749C83.9952 65.3474 84.0545 65.4337 84.0955 65.5291C84.1364 65.6244 84.1581 65.7269 84.1594 65.8306V65.8306C84.1594 66.0428 84.0751 66.2463 83.9251 66.3963C83.7751 66.5464 83.5716 66.6306 83.3594 66.6306C83.1472 66.6306 82.9437 66.5464 82.7937 66.3963C82.6437 66.2463 82.5594 66.0428 82.5594 65.8306V65.8306C82.5594 65.6211 82.6426 65.4202 82.7908 65.272C82.9389 65.1239 83.1399 65.0406 83.3494 65.0406L83.3594 65.0506ZM91.7994 71.0406C91.8014 71.4125 91.693 71.7765 91.4881 72.0868C91.2832 72.397 90.9908 72.6395 90.6481 72.7837C90.3053 72.9278 89.9275 72.967 89.5625 72.8964C89.1974 72.8258 88.8615 72.6486 88.5971 72.387C88.3328 72.1255 88.152 71.7915 88.0775 71.4272C88.003 71.0629 88.0383 70.6847 88.1787 70.3404C88.3192 69.9962 88.5586 69.7013 88.8666 69.493C89.1747 69.2848 89.5376 69.1726 89.9094 69.1706V69.1706C90.1576 69.1693 90.4036 69.2169 90.6334 69.3107C90.8632 69.4044 91.0723 69.5426 91.2488 69.7171C91.4252 69.8917 91.5655 70.0993 91.6617 70.3281C91.7579 70.5569 91.8081 70.8024 91.8094 71.0506L91.7994 71.0406ZM90.1794 83.5706C89.808 83.5667 89.4461 83.4528 89.1394 83.2434C88.8327 83.034 88.5948 82.7384 88.4559 82.394C88.317 82.0496 88.2832 81.6717 88.3588 81.3081C88.4344 80.9445 88.616 80.6114 88.8807 80.3509C89.1454 80.0903 89.4813 79.9141 89.8461 79.8443C90.2109 79.7745 90.5881 79.8143 90.9303 79.9586C91.2725 80.103 91.5643 80.3456 91.7688 80.6556C91.9733 80.9656 92.0813 81.3293 92.0794 81.7006C92.0781 81.9484 92.0278 82.1934 91.9315 82.4217C91.8352 82.6499 91.6947 82.8569 91.5182 83.0306C91.3416 83.2044 91.1324 83.3416 90.9027 83.4343C90.6729 83.5269 90.4271 83.5733 90.1794 83.5706V83.5706ZM83.3094 68.7606C83.7741 68.7605 84.2319 68.6487 84.6444 68.4346C85.0568 68.2206 85.4118 67.9106 85.6794 67.5306L86.9094 68.4106C86.3014 69.0863 85.9478 69.9526 85.9094 70.8606L78.9794 71.2506V71.0506C78.978 70.5368 78.8796 70.0279 78.6894 69.5506L81.0594 67.7506C81.3333 68.0675 81.6728 68.3211 82.0544 68.4937C82.436 68.6664 82.8506 68.7541 83.2694 68.7506L83.3094 68.7606ZM81.0794 85.3006L77.2294 74.3006C77.6158 74.0491 77.9544 73.7308 78.2294 73.3606L86.3894 72.9306C86.6579 73.4299 87.0294 73.8664 87.4794 74.2112C87.9293 74.556 88.4475 74.8013 88.9994 74.9306L89.5494 77.7806C88.5034 77.9524 87.5684 78.5322 86.9497 79.3928C86.3309 80.2534 86.079 81.3245 86.2494 82.3706C86.3082 82.715 86.409 83.0508 86.5494 83.3706L83.5494 86.3106C82.8619 85.7027 81.9863 85.3496 81.0694 85.3106L81.0794 85.3006ZM87.9794 84.9306C88.8215 85.5764 89.8856 85.8613 90.9377 85.7225C91.9897 85.5837 92.9436 85.0327 93.5894 84.1906C94.2352 83.3486 94.52 82.2845 94.3813 81.2324C94.2425 80.1803 93.6915 79.2264 92.8494 78.5806C92.5074 78.3505 92.1334 78.1719 91.7394 78.0506L91.0794 74.8706C91.997 74.5859 92.7814 73.9803 93.2893 73.1647C93.7971 72.3491 93.9945 71.378 93.8452 70.4289C93.6959 69.4798 93.21 68.6161 92.4763 67.9958C91.7426 67.3755 90.8101 67.04 89.8494 67.0506C89.5104 67.0501 89.1733 67.1006 88.8494 67.2006L86.1594 65.2706C86.018 64.5877 85.6352 63.9785 85.0812 63.5549C84.5271 63.1312 83.839 62.9215 83.1428 62.964C82.4467 63.0065 81.7891 63.2985 81.2908 63.7864C80.7924 64.2744 80.4866 64.9255 80.4294 65.6206L77.4294 67.8606C76.8358 67.4296 76.135 67.1701 75.4038 67.1105C74.6726 67.051 73.9391 67.1937 73.2835 67.523C72.628 67.8523 72.0756 68.3556 71.6869 68.9778C71.2981 69.6 71.088 70.3171 71.0794 71.0506C71.0762 72.0868 71.4823 73.0824 72.2094 73.8206L65.5794 79.0506C65.0545 78.5931 64.4192 78.2805 63.7364 78.1438C63.0536 78.0072 62.3469 78.0511 61.6863 78.2713C61.0257 78.4915 60.434 78.8804 59.9697 79.3994C59.5055 79.9184 59.1848 80.5496 59.0394 81.2306L51.6694 82.7106C51.4437 82.0435 51.0459 81.4478 50.5162 80.9837C49.9865 80.5197 49.3436 80.2037 48.6526 80.0677C47.9616 79.9318 47.247 79.9806 46.5809 80.2094C45.9148 80.4382 45.321 80.8388 44.8594 81.3706L30.8594 70.3706C30.9834 70.016 31.0574 69.6457 31.0794 69.2706C31.1297 68.2355 30.7762 67.2212 30.0935 66.4415C29.4108 65.6618 28.4521 65.1775 27.4194 65.0906L24.2494 55.3806C24.6293 55.0171 24.9338 54.5822 25.1454 54.1009C25.3571 53.6196 25.4718 53.1012 25.4829 52.5755C25.4941 52.0498 25.4014 51.5271 25.2104 51.0372C25.0193 50.5474 24.7335 50.1 24.3694 49.7206C24.053 49.3954 23.6846 49.125 23.2794 48.9206L26.4994 38.5606C27.506 38.5396 28.4676 38.1398 29.1924 37.441C29.9171 36.7422 30.3517 35.7958 30.4094 34.7906C30.4416 34.2698 30.3697 33.7478 30.1981 33.2551C30.0264 32.7623 29.7583 32.3087 29.4094 31.9206C28.7759 31.2206 27.9151 30.7671 26.9794 30.6406L26.5894 28.0506L29.3594 28.9306C29.4198 29.6556 29.7504 30.3314 30.2857 30.824C30.821 31.3166 31.5219 31.59 32.2494 31.59C32.9769 31.59 33.6778 31.3166 34.2131 30.824C34.7484 30.3314 35.079 29.6556 35.1394 28.9306C35.1404 28.4669 35.0271 28.0101 34.8094 27.6006L42.1794 21.8506C42.9528 22.5753 43.9823 22.9634 45.0416 22.9296C46.101 22.8959 47.1036 22.4431 47.8294 21.6706C48.0406 21.446 48.2252 21.1977 48.3794 20.9306L58.2994 20.6606V20.9006C58.2994 21.9615 58.7208 22.9789 59.471 23.7291C60.2211 24.4792 61.2385 24.9006 62.2994 24.9006C62.7417 24.8974 63.1806 24.8231 63.5994 24.6806L70.8194 30.1906C70.6378 30.5808 70.5444 31.0062 70.5458 31.4366C70.5472 31.8669 70.6434 32.2917 70.8276 32.6807C71.0118 33.0697 71.2793 33.4133 71.6113 33.6871C71.9433 33.961 72.3315 34.1584 72.7484 34.2652C73.1653 34.372 73.6006 34.3857 74.0234 34.3053C74.4462 34.2249 74.8461 34.0523 75.1946 33.7998C75.5431 33.5474 75.8318 33.2212 76.04 32.8446C76.2482 32.468 76.3709 32.0501 76.3994 31.6206C76.4094 31.5075 76.4094 31.3938 76.3994 31.2806V30.9806L81.2694 28.3706C81.9205 29.2087 82.8779 29.7538 83.9309 29.8861C84.9839 30.0183 86.0463 29.7268 86.8844 29.0756C87.7225 28.4245 88.2676 27.4672 88.3998 26.4142C88.532 25.3611 88.2405 24.2987 87.5894 23.4606C87.0496 22.7737 86.3026 22.2792 85.4594 22.0506L85.6394 17.1306H85.2994C85.759 16.8733 86.1634 16.5279 86.4896 16.1142C86.8157 15.7005 87.0572 15.2266 87.2002 14.7196C87.3432 14.2126 87.3849 13.6824 87.323 13.1592C87.2611 12.6361 87.0968 12.1303 86.8394 11.6706C86.582 11.211 86.2366 10.8066 85.8229 10.4805C85.4092 10.1543 84.9353 9.91285 84.4283 9.76984C83.4044 9.48104 82.3077 9.61082 81.3794 10.1306C80.9176 10.3819 80.5098 10.7217 80.1794 11.1306L76.7494 7.71065C76.8293 7.38332 76.8696 7.04758 76.8694 6.71065C76.8523 5.90545 76.5926 5.12416 76.1242 4.469C75.6558 3.81384 75.0005 3.31534 74.2442 3.03872C73.4878 2.7621 72.6655 2.72025 71.8849 2.91864C71.1044 3.11704 70.4019 3.54643 69.8694 4.15065L62.2794 3.05065C62.092 2.32493 61.7044 1.66646 61.1609 1.15031C60.6175 0.63417 59.9399 0.281114 59.2054 0.131395C58.471 -0.0183237 57.7093 0.041319 57.0071 0.303524C56.305 0.565728 55.6906 1.01995 55.2341 1.61439C54.7775 2.20884 54.4972 2.9196 54.425 3.66565C54.3529 4.41169 54.4918 5.16301 54.8259 5.83394C55.16 6.50487 55.6759 7.06842 56.3148 7.46035C56.9537 7.85228 57.6899 8.05682 58.4394 8.05065H58.7294L60.5994 16.6406L50.7794 4.05065C50.8895 3.68236 50.9253 3.29585 50.8847 2.91359C50.8441 2.53134 50.728 2.16097 50.5429 1.82402C50.3579 1.48707 50.1078 1.19027 49.807 0.950868C49.5062 0.71147 49.1609 0.534254 48.791 0.429526C48.4212 0.324798 48.0342 0.294648 47.6526 0.340828C47.2709 0.387008 46.9023 0.508598 46.5681 0.698526C46.2339 0.888454 45.9408 1.14293 45.7058 1.44716C45.4708 1.75138 45.2987 2.09929 45.1994 2.47065L39.0794 3.15065C38.6126 2.43455 37.9287 1.88684 37.1279 1.58779C36.3271 1.28875 35.4515 1.2541 34.6296 1.48894C33.8077 1.72377 33.0826 2.21573 32.5607 2.8927C32.0388 3.56966 31.7474 4.39603 31.7294 5.25065C31.7194 5.40048 31.7194 5.55081 31.7294 5.70065L25.6194 9.39065C25.2361 8.94289 24.7242 8.62402 24.1533 8.47736C23.5824 8.3307 22.9802 8.36337 22.4286 8.57093C21.8769 8.77849 21.4025 9.15087 21.0699 9.63746C20.7372 10.1241 20.5625 10.7013 20.5694 11.2906C20.5675 11.7804 20.6915 12.2625 20.9294 12.6906L15.5794 18.9306C14.7299 18.6606 13.8145 18.6821 12.9786 18.9917C12.1427 19.3013 11.4341 19.8812 10.9654 20.6394C10.4967 21.3977 10.2946 22.2907 10.3914 23.1769C10.4881 24.063 10.8781 24.8914 11.4994 25.5306L7.71939 32.1506C7.43595 32.0423 7.14049 31.9684 6.83939 31.9306C5.78156 31.8817 4.74748 32.2543 3.96391 32.9666C3.18034 33.679 2.71121 34.6729 2.65939 35.7306C2.6272 36.2515 2.69904 36.7735 2.87073 37.2662C3.04242 37.759 3.31052 38.2126 3.65939 38.6006C3.9476 38.9193 4.28526 39.1894 4.65939 39.4006L3.14939 49.0506C2.22555 49.244 1.39983 49.7578 0.818262 50.5012C0.236695 51.2446 -0.0632547 52.1697 -0.0285422 53.1129C0.00617033 54.0562 0.373308 54.9567 1.00795 55.6554C1.64258 56.354 2.50383 56.8057 3.43939 56.9306L7.56939 69.3306C7.16067 69.7007 6.8659 70.1796 6.71964 70.7112C6.57337 71.2428 6.58168 71.805 6.74359 72.3321C6.90549 72.8591 7.21428 73.3291 7.63376 73.6869C8.05323 74.0447 8.56602 74.2755 9.11199 74.3522C9.65797 74.429 10.2145 74.3485 10.7164 74.1202C11.2183 73.892 11.6447 73.5254 11.9456 73.0634C12.2466 72.6014 12.4096 72.0633 12.4156 71.5119C12.4215 70.9606 12.2702 70.419 11.9794 69.9506L16.4694 62.1206L23.6894 67.1206C23.3619 67.6702 23.171 68.2903 23.1328 68.9289C23.0945 69.5675 23.2099 70.2059 23.4694 70.7906L17.0794 74.8606C16.5969 74.4355 16.019 74.1329 15.3947 73.9786C14.7704 73.8243 14.1181 73.8228 13.4931 73.9743C12.8681 74.1257 12.2888 74.4256 11.8043 74.8485C11.3199 75.2714 10.9445 75.8049 10.7101 76.4038C10.4757 77.0026 10.3892 77.6492 10.4578 78.2886C10.5264 78.928 10.7482 79.5415 11.1043 80.0769C11.4604 80.6124 11.9404 81.0541 12.5036 81.3646C13.0668 81.6751 13.6965 81.8453 14.3394 81.8606H14.5594C14.9148 81.8613 15.2684 81.8108 15.6094 81.7106L22.2794 89.6306C21.7877 90.1957 21.4645 90.8875 21.3466 91.6272C21.2287 92.3669 21.321 93.1249 21.6128 93.8148C21.9045 94.5046 22.3842 95.0987 22.9971 95.5294C23.61 95.96 24.3314 96.2099 25.0794 96.2506H25.2994C26.3039 96.2543 27.273 95.8798 28.0141 95.2017C28.7552 94.5236 29.214 93.5915 29.2994 92.5906L34.9794 90.2606L36.8994 95.5106C36.3391 96.0472 35.947 96.7351 35.7707 97.4906C35.5944 98.2461 35.6416 99.0365 35.9065 99.7656C36.1715 100.495 36.6427 101.131 37.2629 101.597C37.883 102.063 38.6253 102.339 39.3994 102.391H39.6094C40.1851 102.378 40.7511 102.24 41.2689 101.988C41.7866 101.736 42.2439 101.376 42.6094 100.931L53.4594 102.691C53.7004 103.227 54.0992 103.677 54.6027 103.981C55.1062 104.284 55.6903 104.427 56.2771 104.39C56.8639 104.354 57.4255 104.138 57.8869 103.774C58.3483 103.41 58.6876 102.913 58.8594 102.351L65.5994 98.8606C66.2107 99.7279 67.1415 100.317 68.187 100.498C69.2325 100.679 70.3071 100.437 71.1744 99.8256C72.0417 99.2143 72.6305 98.2835 72.8115 97.238C72.9925 96.1925 72.7507 95.1179 72.1394 94.2506C71.9036 93.9148 71.6168 93.6179 71.2894 93.3706L70.4194 86.1006L76.9794 89.1706V89.2806C76.8614 90.3415 77.1696 91.4058 77.8363 92.2394C78.503 93.073 79.4735 93.6076 80.5344 93.7256C81.5953 93.8437 82.6596 93.5354 83.4932 92.8687C84.3268 92.202 84.8614 91.2315 84.9794 90.1706C85.0094 89.8747 85.0094 89.5766 84.9794 89.2806C84.9677 88.8611 84.8901 88.446 84.7494 88.0506L87.9794 84.9306Z"
      fill="#0059B1"
    />
  </g>
  <defs>
    <clipPath id="clip0_1035_1019">
      <rect width="345.76" height="104.4" fill="white" />
    </clipPath>
  </defs>
</svg>